PathFileType	4	(X/Y/Z)	W12_1_OpenSim.trc																																																																																																																						
DataRate	CameraRate	NumFrames	NumMarkers	Units	OrigDataRate	OrigDataStartFrame	OrigNumFrames																																																																																																																		
100	100	10	40	mm	100	2251	3000																																																																																																																		
Frame#	Time	R.ASIS			R.PSIS			S2			L.PSIS			L.ASIS			R.TH1			R.TH2			R.TH3			R.MKnee			R.Knee			R.SH1			R.SH2			R.SH3			R.SH4			R.Ankle			R.MAnkle			R.Heel			R.MT5			R.MT1			L.TH1			L.TH2			L.TH3			L.TH4			L.MKnee			L.Knee			L.SH1			L.SH2			L.SH3			L.Ankle			L.MAnkle			L.Heel			L.MT5			L.MT1			R.Acr			L.Acr			C7			T10			Clav			Sternum			R.Back		
		X1	Y1	Z1	X2	Y2	Z2	X3	Y3	Z3	X4	Y4	Z4	X5	Y5	Z5	X6	Y6	Z6	X7	Y7	Z7	X8	Y8	Z8	X9	Y9	Z9	X10	Y10	Z10	X11	Y11	Z11	X12	Y12	Z12	X13	Y13	Z13	X14	Y14	Z14	X15	Y15	Z15	X16	Y16	Z16	X17	Y17	Z17	X18	Y18	Z18	X19	Y19	Z19	X20	Y20	Z20	X21	Y21	Z21	X22	Y22	Z22	X23	Y23	Z23	X24	Y24	Z24	X25	Y25	Z25	X26	Y26	Z26	X27	Y27	Z27	X28	Y28	Z28	X29	Y29	Z29	X30	Y30	Z30	X31	Y31	Z31	X32	Y32	Z32	X33	Y33	Z33	X34	Y34	Z34	X35	Y35	Z35	X36	Y36	Z36	X37	Y37	Z37	X38	Y38	Z38	X39	Y39	Z39	X40	Y40	Z40
2251	22.5	1049.2417	1065.6851	-429.0951	856.7319	1067.493	-513.3935	847.2162	1065.7532	-558.3464	852.0854	1074.5547	-608.2567	1025.9189	1068.3467	-723.364	1122.8877	768.8604	-403.5565	1049.8867	731.4294	-394.8068	1099.823	633.8214	-403.3814	1167.4386	531.432	-529.4562	1157.5808	536.0861	-410.2856	1089.0496	387.6589	-407.6827	1034.4992	290.4044	-423.6346	1017.7283	429.4167	-407.5812	963.8519	329.5432	-412.4178	896.5864	186.1635	-418.0443	943.3283	180.1066	-507.6786	830.7684	187.5532	-481.1579	964.7682	88.2052	-383.9281	1013.7761	64.7547	-467.9665	1037.9447	766.2158	-730.9	1033.3438	658.3337	-715.9808	953.637	764.6475	-739.647	953.5144	656.9027	-716.876	1004.3046	511.8698	-585.9145	1000.1936	514.4937	-696.8946	991.7938	379.2571	-707.6042	911.1949	390.9523	-715.2252	897.692	282.3341	-703.9916	921.5148	80.506	-689.584	952.0618	92.7127	-590.605	855.9862	42.4744	-634.126	1028.8394	32.5056	-706.0677	1068.9514	44.7519	-607.39	1003.0264	1468.4199	-409.3353	958.1081	1461.4452	-730.1174	925.3517	1505.2664	-567.9016	889.2445	1179.071	-562.4735	1061.5419	1409.8307	-580.0226	1087.4925	1265.4832	-573.0668	854.2595	1410.1969	-477.5426
2252	22.51	1048.364	1065.9841	-429.5571	855.3172	1067.5389	-512.9063	845.7787	1065.6836	-557.7721	850.419	1074.4274	-607.7131	1023.7278	1067.9691	-723.8156	1124.0161	771.1726	-402.7259	1051.4876	732.9886	-394.0692	1102.3187	635.9242	-402.7401	1171.3528	534.052	-528.793	1161.5706	538.734	-409.6998	1100.3501	386.8489	-406.3431	1050.854	286.8545	-422.0934	1026.9222	424.7024	-405.9069	978.3438	322.1827	-410.4698	918.8966	174.5225	-415.7563	965.9883	171.1477	-505.343	853.2239	171.7427	-478.7749	992.9523	80.9172	-381.4635	1043.2681	60.3788	-465.4843	1032.6437	765.5576	-731.0372	1026.6578	657.5958	-716.1705	948.4714	765.0616	-739.9328	946.8531	657.322	-717.2368	995.7024	511.2574	-586.3648	991.0235	514.1459	-697.3332	981.7181	378.9769	-707.9361	901.2429	391.2164	-715.5463	886.9959	282.7143	-704.2315	909.6366	80.5693	-689.5916	940.1838	92.7848	-590.6445	844.0746	42.5359	-634.1352	1016.767	32.5193	-706.2034	1056.9475	44.794	-607.4747	1001.7616	1467.8257	-408.9395	958.535	1461.9927	-729.8328	924.9141	1505.4083	-567.7281	888.0906	1179.3032	-562.8852	1060.859	1409.6433	-579.5483	1086.4471	1265.2023	-572.9568	853.1695	1410.2352	-478.051
2253	22.52	1047.5701	1066.0526	-429.9527	854.0531	1067.4315	-512.3816	844.442	1065.4808	-557.1804	848.8621	1074.1642	-607.1503	1021.5626	1067.4283	-724.1938	1124.7639	772.9318	-401.9868	1052.6764	734.1183	-393.3296	1104.1799	637.5092	-402.157	1174.4423	536.0468	-528.1628	1164.8311	540.8221	-409.1589	1111.4001	385.7559	-404.9179	1067.2648	283.1914	-420.4184	1035.9936	419.4551	-404.1003	993.0606	314.4756	-408.3421	941.972	162.8602	-413.2211	989.2559	162.1754	-502.7804	876.6858	155.7887	-476.1488	1021.757	74.0808	-378.681	1073.245	56.4931	-462.667	1027.4822	764.8074	-731.0695	1020.1128	656.807	-716.2482	943.4632	765.3682	-740.2098	940.343	657.6611	-717.564	987.1449	510.6036	-586.7803	982.0176	513.7617	-697.6732	971.7513	378.6776	-708.2235	891.3885	391.4999	-715.7925	876.3328	283.1284	-704.4183	897.7485	80.6429	-689.5942	928.2706	92.8135	-590.643	832.1902	42.5794	-634.1303	1004.685	32.5117	-706.3407	1044.9353	44.8493	-607.5474	1000.6073	1466.977	-408.5262	958.9087	1462.2889	-729.5096	924.5009	1505.3401	-567.4908	886.9967	1179.3021	-563.153	1060.2189	1409.1995	-579.0656	1085.4241	1264.6688	-572.8323	852.1437	1410.0615	-478.455
2254	22.53	1046.8582	1065.8914	-430.2621	852.9607	1067.1844	-511.8383	843.2322	1065.1589	-556.59	847.446	1073.7797	-606.587	1019.5014	1066.7424	-724.4827	1125.1134	774.1125	-401.3642	1053.4266	734.8014	-392.6217	1105.3883	638.5486	-401.6401	1176.707	537.3837	-527.5377	1167.3649	542.3087	-408.6572	1122.1591	384.4171	-403.4408	1083.695	279.5073	-418.6187	1044.9482	413.7315	-402.211	1007.9904	306.5303	-406.0879	965.7919	151.391	-410.4695	1013.0934	153.3676	-500.035	901.1199	139.9467	-473.2985	1051.0842	67.8867	-375.6186	1103.5852	53.2586	-459.5601	1022.4871	763.9519	-730.9944	1013.7157	655.9578	-716.2075	938.624	765.5634	-740.4661	933.9957	657.9133	-717.8391	978.6453	509.9069	-587.1562	973.1929	513.3394	-697.9066	961.8938	378.3617	-708.4631	881.6365	391.8041	-715.9579	865.711	283.5768	-704.5496	885.8517	80.7296	-689.5872	916.3357	92.8022	-590.6005	820.3178	42.622	-634.1131	992.6039	32.4821	-706.4655	1032.9222	44.9081	-607.5987	999.5594	1465.8993	-408.086	959.2204	1462.3381	-729.1448	924.1088	1505.0627	-567.1874	885.9729	1179.0679	-563.2812	1059.6234	1408.52	-578.5684	1084.4359	1263.9034	-572.6854	851.1901	1409.677	-478.7469
2255	22.54	1046.2341	1065.498	-430.4718	852.0483	1066.8135	-511.2903	842.175	1064.731	-556.0106	846.2003	1073.2892	-606.0312	1017.6271	1065.9281	-724.6746	1125.0504	774.6936	-400.8675	1053.702	735.0193	-391.9761	1105.9292	639.0181	-401.1891	1178.1555	538.0327	-526.8932	1169.1677	543.158	-408.1843	1132.5732	382.8845	-401.9399	1100.0896	275.9071	-416.6995	1053.7781	407.6014	-400.2866	1023.1024	298.4686	-403.7646	990.3137	140.3272	-407.5413	1037.443	144.9112	-497.1567	926.4735	124.4698	-470.2451	1080.8303	62.5207	-372.3337	1134.152	50.8454	-456.2367	1017.6717	762.9843	-730.8151	1007.4711	655.04	-716.049	933.9619	765.645	-740.6883	927.821	658.0731	-718.0512	970.2279	509.1678	-587.4821	964.5644	512.8765	-698.0301	952.1528	378.0293	-708.6556	871.999	392.1277	-716.0462	855.1485	284.0574	-704.6293	873.9533	80.8318	-689.5658	904.401	92.7644	-590.5266	808.4484	42.6769	-634.0843	980.5292	32.435	-706.5695	1020.9264	44.9585	-607.6289	998.6111	1464.6183	-407.6086	959.4675	1462.1456	-728.7338	923.7363	1504.5763	-566.8182	885.0342	1178.6039	-563.2762	1059.0746	1407.6284	-578.0493	1083.4988	1262.93	-572.5075	850.3152	1409.0825	-478.9219
2256	22.55	1045.71	1064.8685	-430.5753	851.3202	1066.3323	-510.7435	841.295	1064.2089	-555.4415	845.1534	1072.7075	-605.4801	1016.0082	1064.9923	-724.7682	1124.5668	774.6537	-400.4902	1053.4703	734.7535	-391.4093	1105.793	638.8955	-400.7934	1178.7969	537.9706	-526.2078	1170.236	543.3442	-407.7266	1142.5845	381.2227	-400.434	1116.3785	272.506	-414.673	1062.4673	401.1482	-398.3612	1038.3506	290.427	-401.424	1015.4716	129.8761	-404.4859	1062.2256	136.9989	-494.1983	952.6872	109.6094	-467.0237	1110.8752	58.1656	-368.9071	1164.7988	49.428	-452.7934	1013.0407	761.904	-730.5395	1001.3848	654.0509	-715.7819	929.4806	765.6137	-740.8654	921.8287	658.1382	-718.1987	961.9239	508.3891	-587.7472	956.1454	512.3701	-698.0492	942.5385	377.6787	-708.8059	862.4928	392.4686	-716.0684	844.671	284.5651	-704.6636	862.0626	80.9514	-689.5268	892.4871	92.7186	-590.4344	796.578	42.7545	-634.0446	968.4652	32.3789	-706.6518	1008.965	44.9926	-607.6442	997.7551	1463.1589	-407.0841	959.6539	1461.7175	-728.2709	923.3819	1503.8805	-566.3854	884.1986	1177.9171	-563.1447	1058.5742	1406.5497	-577.5004	1082.6315	1261.7766	-572.2894	849.5239	1408.2779	-478.978
2257	22.56	1045.3024	1063.999	-430.5729	850.7838	1065.7485	-510.1932	840.6155	1063.6016	-554.873	844.3321	1072.045	-604.9217	1014.6804	1063.9296	-724.7634	1123.6628	773.9689	-400.2117	1052.7194	733.9893	-390.9178	1104.9781	638.1631	-400.4304	1178.6317	537.1851	-525.4644	1170.5737	542.8554	-407.2647	1152.1367	379.5032	-398.9358	1132.4836	269.4216	-412.5694	1070.9967	394.4653	-396.4482	1053.6799	282.55	-399.105	1041.1708	120.2374	-401.3663	1087.3411	129.8221	-491.2148	979.6858	95.6065	-463.689	1141.0718	54.9993	-365.441	1195.3679	49.1803	-449.3458	1008.5933	760.7147	-730.1782	995.4658	652.9935	-715.4236	925.1804	765.4722	-740.9909	916.0301	658.1104	-718.2869	953.766	507.5751	-587.9468	947.9463	511.8184	-697.981	933.0627	377.3088	-708.9232	853.1353	392.824	-716.0389	834.3105	285.0929	-704.6574	850.1885	81.0901	-689.4708	880.6078	92.68	-590.3352	784.7063	42.863	-633.9961	956.4182	32.3229	-706.7158	997.0407	45.0102	-607.6536	996.9836	1461.5458	-406.5058	959.7878	1461.0612	-727.7508	923.0438	1502.9772	-565.892	883.482	1177.016	-562.8919	1058.1239	1405.3086	-576.913	1081.8538	1260.4722	-572.0223	848.82	1407.2617	-478.9157
2258	22.57	1045.0314	1062.889	-430.4712	850.4497	1065.0619	-509.6264	840.1545	1062.9117	-554.2892	843.7585	1071.3049	-604.3386	1013.648	1062.7278	-724.6569	1122.3529	772.6226	-400.0013	1051.4628	732.7194	-390.4747	1103.4983	636.813	-400.0631	1177.6472	535.6773	-524.6515	1170.2017	541.6983	-406.7664	1161.1809	377.7974	-397.4536	1148.3238	266.7627	-410.4388	1079.3452	387.6536	-394.5381	1069.0295	274.9799	-396.8283	1067.2802	111.5956	-398.2611	1112.6581	123.5655	-488.2718	1007.3545	82.6807	-460.3182	1171.2434	53.1829	-362.0546	1225.6783	50.2694	-446.022	1004.3276	759.4233	-729.7429	989.7253	651.8741	-714.9948	921.062	765.2253	-741.0612	910.4354	657.9951	-718.3231	945.7817	506.7311	-588.0836	939.9747	511.2219	-697.855	923.7411	376.9182	-709.0182	843.9432	393.1913	-715.9735	824.0973	285.6354	-704.6163	838.3379	81.2496	-689.4018	868.7712	92.656	-590.2363	772.8366	43.0077	-633.9426	944.3945	32.2747	-706.7692	985.142	45.0183	-607.6697	996.2873	1459.8015	-405.8706	959.8801	1460.186	-727.1701	922.7207	1501.8702	-565.3395	882.8945	1175.9087	-562.5194	1057.7251	1403.9294	-576.2786	1081.1858	1259.045	-571.6976	848.2059	1406.0317	-478.7395
2259	22.58	1044.9191	1061.5418	-430.2813	850.3305	1064.2621	-509.0236	839.9216	1062.1329	-553.671	843.4434	1070.4834	-603.7114	1012.8983	1061.377	-724.4427	1120.67	770.6193	-399.8261	1049.7417	730.9498	-390.0307	1101.3944	634.8544	-399.6397	1175.8225	533.464	-523.7597	1169.1637	539.9026	-406.1869	1169.6747	376.1715	-395.9907	1163.8109	264.6202	-408.3415	1087.4871	380.8179	-392.6039	1084.3262	267.8459	-394.5966	1093.6207	104.1079	-395.2654	1137.991	118.3993	-485.4536	1035.5181	71.0223	-457.012	1201.1804	52.8426	-358.8797	1255.5138	52.8393	-442.9554	1000.243	758.0373	-729.2445	984.1747	650.6995	-714.5138	917.1319	764.8779	-741.0735	905.0512	657.8011	-718.3116	937.9915	505.8639	-588.1647	932.2366	510.5834	-697.7042	914.5944	376.505	-709.0986	834.9329	393.5676	-715.8869	814.0525	286.1919	-704.5472	826.5168	81.4316	-689.3247	856.9813	92.6463	-590.1414	760.9733	43.1927	-633.8874	932.3975	32.2383	-706.8238	973.255	45.0293	-607.7076	995.6551	1457.945	-405.176	959.9437	1459.1044	-726.5268	922.4132	1500.5665	-564.727	882.439	1174.601	-562.0259	1057.38	1402.4326	-575.59	1080.646	1257.5188	-571.3084	847.6815	1404.5868	-478.4582
2260	22.59	1044.9847	1059.9641	-430.0153	850.4388	1063.3285	-508.3613	839.9155	1061.2479	-552.9976	843.382	1069.567	-603.0204	1012.411	1059.8742	-724.1136	1118.6693	767.9968	-399.6561	1047.6285	728.7086	-389.5164	1098.7451	632.3223	-399.0951	1173.1457	530.5833	-522.7722	1167.5311	537.5216	-405.4778	1177.5786	374.6817	-394.5467	1178.8358	263.0586	-406.3354	1095.3853	374.0651	-390.6155	1099.4719	261.2579	-392.4066	1119.9518	97.8895	-392.4863	1163.0812	114.4656	-482.8579	1063.927	60.7828	-453.8915	1230.6328	54.046	-356.0522	1284.6091	56.9859	-440.2762	996.342	756.563	-728.6916	978.8278	649.4739	-713.9924	913.4027	764.4356	-741.0281	899.8835	657.5375	-718.2526	930.4095	504.9814	-588.1976	924.7405	509.9054	-697.5486	905.6442	376.0645	-709.1628	826.1205	393.9504	-715.7898	804.1885	286.765	-704.4583	814.7291	81.6378	-689.2433	845.2387	92.6461	-590.0521	749.1185	43.423	-633.8331	920.4274	32.2154	-706.8951	961.3678	45.0577	-607.7768	995.0767	1455.991	-404.4187	959.9919	1457.8295	-725.8198	922.1252	1499.0736	-564.051	882.1122	1173.0956	-561.4103	1057.0913	1400.834	-574.8426	1080.2499	1255.9102	-570.8492	847.2433	1402.9283	-478.0829
